<svg width="105" height="30" viewBox="0 0 105 30" fill="none" xmlns="http://www.w3.org/2000/svg">
<path d="M43.3525 0.167131C46.2919 0.167131 48.6073 0.473538 50.2989 1.08635C51.9904 1.67131 53.1412 2.70195 53.7512 4.17827C54.3613 5.6546 54.4861 7.70195 54.1256 10.3203C53.7928 12.7994 53.2105 14.7214 52.3786 16.0864C51.5744 17.4513 50.3959 18.3983 48.843 18.9276C47.3179 19.4568 45.2936 19.7214 42.7701 19.7214C41.3559 19.7214 39.9555 19.6518 38.569 19.5125C37.2103 19.3454 35.9347 19.1365 34.7423 18.8858C33.5776 18.6351 32.5793 18.3705 31.7474 18.0919C30.9155 17.8134 30.3471 17.5627 30.042 17.3398L30.2916 13.3287C32.1773 13.3287 34.1322 13.3287 36.1565 13.3287C38.1808 13.3287 40.1219 13.3287 41.9798 13.3287C42.7008 13.3287 43.2693 13.2591 43.6852 13.1198C44.1012 12.9805 44.4201 12.6462 44.6419 12.117C44.8915 11.5877 45.0856 10.766 45.2243 9.65181C45.3352 8.87187 45.349 8.25905 45.2658 7.81337C45.2104 7.36769 45.0163 7.04735 44.6835 6.85237C44.3508 6.65738 43.8377 6.55989 43.1445 6.55989C40.2883 6.55989 37.8619 6.58774 35.8654 6.64346C33.8965 6.67131 32.5655 6.72702 31.8722 6.81059L31.789 0.584958C33.0369 0.445682 34.2016 0.34819 35.283 0.29248C36.3645 0.236769 37.5292 0.208913 38.777 0.208913C40.0526 0.181059 41.5777 0.167131 43.3525 0.167131ZM40.7736 0.584958L36.7389 29.415H27.7543L31.789 0.584958H40.7736Z" fill="#D9D9D9"/>
<path d="M67.1738 0C70.3073 0 72.6921 0.431755 74.3281 1.29527C75.9642 2.13092 76.7822 3.73259 76.7822 6.10028C76.7822 7.54875 76.5743 8.84401 76.1583 9.98607C75.7424 11.1281 75.1046 12.0474 74.2449 12.7437C73.413 13.4401 72.3454 13.8719 71.0421 14.039L71.0005 14.2061C72.7752 14.429 74.0231 14.9861 74.7441 15.8774C75.4651 16.7688 75.8256 17.9387 75.8256 19.3872C75.8256 21.922 75.3125 23.9694 74.2865 25.5292C73.2883 27.0891 71.8324 28.2312 69.9191 28.9554C68.0334 29.6518 65.7595 30 63.0975 30C61.6555 30 60.0887 29.9164 58.3972 29.7493C56.7057 29.5822 55.0973 29.3872 53.5722 29.1643L54.1545 22.8552C55.4301 22.9387 56.4838 22.9944 57.3157 23.0223C58.1754 23.0501 58.9518 23.0641 59.6451 23.0641C60.3383 23.0641 61.0732 23.0641 61.8496 23.0641C63.5411 23.0641 64.8306 22.7159 65.7179 22.0195C66.633 21.3231 67.0906 20.2089 67.0906 18.6769C67.0906 18.3148 67.0074 18.0362 66.841 17.8412C66.6746 17.6462 66.4251 17.507 66.0923 17.4234C65.7596 17.312 65.3297 17.2563 64.8029 17.2563H58.7716L59.4787 11.8245H65.3436C66.536 11.8245 67.3263 11.5738 67.7145 11.0724C68.1027 10.571 68.2968 9.69359 68.2968 8.44011C68.2968 7.91086 68.1443 7.52089 67.8393 7.2702C67.562 7.0195 66.9103 6.89415 65.8843 6.89415C64.3314 6.89415 62.8202 6.89415 61.3505 6.89415C59.9085 6.89415 58.6607 6.89415 57.6069 6.89415V0.752089C59.3539 0.473538 61.0732 0.278552 62.7647 0.167131C64.4562 0.0557104 65.9259 0 67.1738 0Z" fill="#D9D9D9"/>
<path d="M93.6819 0.167131C96.344 0.167131 98.5624 0.445683 100.337 1.00279C102.112 1.55989 103.387 2.50696 104.164 3.84401C104.94 5.1532 105.176 6.96379 104.871 9.27577C104.732 10.3621 104.441 11.3788 103.997 12.3259C103.581 13.2451 102.93 14.0111 102.042 14.624C101.155 15.2368 99.935 15.6267 98.3821 15.7939L98.3405 16.0864C98.8119 16.1421 99.3111 16.3231 99.8379 16.6295C100.393 16.9081 100.878 17.3677 101.294 18.0084C101.737 18.649 102.015 19.5543 102.126 20.7242L103.207 29.415H93.8898L93.1411 20.6825C93.1134 19.8747 92.9886 19.3733 92.7668 19.1783C92.5449 18.9833 92.1151 18.8858 91.4773 18.8858C89.3421 18.8579 87.609 18.844 86.2779 18.844C84.9469 18.844 83.8238 18.8301 82.9087 18.8022C82.0214 18.7744 81.1479 18.7326 80.2883 18.6769L80.9538 12.493H92.3508C93.1827 12.493 93.8205 12.4095 94.2642 12.2423C94.7356 12.0752 95.0822 11.7549 95.3041 11.2813C95.5536 10.7799 95.7478 10.0836 95.8864 9.1922C95.9973 8.52368 95.9973 7.99443 95.8864 7.60446C95.7755 7.21449 95.5398 6.94986 95.1793 6.81059C94.8188 6.64345 94.2919 6.55989 93.5987 6.55989C90.6316 6.55989 88.1497 6.58774 86.1532 6.64346C84.1843 6.67131 82.8533 6.72702 82.16 6.81059L82.0768 0.584958C83.3247 0.445682 84.4894 0.34819 85.5708 0.29248C86.68 0.236769 87.8724 0.208913 89.148 0.208913C90.4236 0.181059 91.9349 0.167131 93.6819 0.167131ZM90.895 0.584958L86.8603 29.415H78.0421L82.0768 0.584958H90.895Z" fill="#D9D9D9"/>
<path d="M0 11.1351L28.1633 1.55989L25.1304 23.3217L0 24.4098V11.1351Z" fill="#D9D9D9"/>
<path d="M5.19938 26.1508L19.0644 25.4979L18.5379 29.415H5.19938V26.1508Z" fill="#D9D9D9"/>
</svg>
